<svg xmlns="http://www.w3.org/2000/svg" version="1.1" xmlns:xlink="http://www.w3.org/1999/xlink" xmlns:svgjs="http://svgjs.dev/svgjs" width="1440" height="560" preserveAspectRatio="none" viewBox="0 0 1440 560"><g mask="url(&quot;#SvgjsMask1012&quot;)" fill="none"><rect width="1440" height="560" x="0" y="0" fill="rgba(208, 242, 213, 1)"></rect><path d="M-91.66 399.12L-91.66 399.12" stroke="rgba(25, 101, 19, 1)" stroke-width="1.5"></path><path d="M-91.66 399.12L-109.17 501.59" stroke="rgba(25, 101, 19, 1)" stroke-width="1.5"></path><path d="M-91.66 399.12L62.97 375.44" stroke="rgba(25, 101, 19, 1)" stroke-width="1.5"></path><path d="M-109.17 501.59L-109.17 501.59" stroke="rgba(25, 101, 19, 1)" stroke-width="1.5"></path><path d="M-97.39 674.81L-97.39 674.81" stroke="rgba(25, 101, 19, 1)" stroke-width="1.5"></path><path d="M-97.39 674.81L50.69 656.58" stroke="rgba(25, 101, 19, 1)" stroke-width="1.5"></path><path d="M-97.39 674.81L-109.17 501.59" stroke="rgba(25, 101, 19, 1)" stroke-width="1.5"></path><path d="M-97.39 674.81L107.95 527.09" stroke="rgba(25, 101, 19, 1)" stroke-width="1.5"></path><path d="M-97.39 674.81L-91.66 399.12" stroke="rgba(25, 101, 19, 1)" stroke-width="1.5"></path><path d="M62.97 375.44L62.97 375.44" stroke="rgba(25, 101, 19, 1)" stroke-width="1.5"></path><path d="M62.97 375.44L107.95 527.09" stroke="rgba(25, 101, 19, 1)" stroke-width="1.5"></path><path d="M107.95 527.09L107.95 527.09" stroke="rgba(25, 101, 19, 1)" stroke-width="1.5"></path><path d="M107.95 527.09L232.5 528.31" stroke="rgba(25, 101, 19, 1)" stroke-width="1.5"></path><path d="M107.95 527.09L50.69 656.58" stroke="rgba(25, 101, 19, 1)" stroke-width="1.5"></path><path d="M107.95 527.09L240.22 373.95" stroke="rgba(25, 101, 19, 1)" stroke-width="1.5"></path><path d="M50.69 656.58L50.69 656.58" stroke="rgba(25, 101, 19, 1)" stroke-width="1.5"></path><path d="M50.69 656.58L230.21 693.46" stroke="rgba(25, 101, 19, 1)" stroke-width="1.5"></path><path d="M240.22 373.95L240.22 373.95" stroke="rgba(25, 101, 19, 1)" stroke-width="1.5"></path><path d="M240.22 373.95L232.5 528.31" stroke="rgba(25, 101, 19, 1)" stroke-width="1.5"></path><path d="M240.22 373.95L62.97 375.44" stroke="rgba(25, 101, 19, 1)" stroke-width="1.5"></path><path d="M240.22 373.95L400.91 557.64" stroke="rgba(25, 101, 19, 1)" stroke-width="1.5"></path><path d="M240.22 373.95L549.02 355.55" stroke="rgba(25, 101, 19, 1)" stroke-width="1.5"></path><path d="M232.5 528.31L232.5 528.31" stroke="rgba(25, 101, 19, 1)" stroke-width="1.5"></path><path d="M232.5 528.31L230.21 693.46" stroke="rgba(25, 101, 19, 1)" stroke-width="1.5"></path><path d="M232.5 528.31L400.91 557.64" stroke="rgba(25, 101, 19, 1)" stroke-width="1.5"></path><path d="M230.21 693.46L230.21 693.46" stroke="rgba(25, 101, 19, 1)" stroke-width="1.5"></path><path d="M230.21 693.46L396.32 701.86" stroke="rgba(25, 101, 19, 1)" stroke-width="1.5"></path><path d="M230.21 693.46L107.95 527.09" stroke="rgba(25, 101, 19, 1)" stroke-width="1.5"></path><path d="M230.21 693.46L400.91 557.64" stroke="rgba(25, 101, 19, 1)" stroke-width="1.5"></path><path d="M230.21 693.46L522.88 657.23" stroke="rgba(25, 101, 19, 1)" stroke-width="1.5"></path><path d="M400.91 557.64L400.91 557.64" stroke="rgba(25, 101, 19, 1)" stroke-width="1.5"></path><path d="M400.91 557.64L524.58 552.85" stroke="rgba(25, 101, 19, 1)" stroke-width="1.5"></path><path d="M400.91 557.64L396.32 701.86" stroke="rgba(25, 101, 19, 1)" stroke-width="1.5"></path><path d="M396.32 701.86L396.32 701.86" stroke="rgba(25, 101, 19, 1)" stroke-width="1.5"></path><path d="M396.32 701.86L522.88 657.23" stroke="rgba(25, 101, 19, 1)" stroke-width="1.5"></path><path d="M396.32 701.86L524.58 552.85" stroke="rgba(25, 101, 19, 1)" stroke-width="1.5"></path><path d="M396.32 701.86L232.5 528.31" stroke="rgba(25, 101, 19, 1)" stroke-width="1.5"></path><path d="M549.02 355.55L549.02 355.55" stroke="rgba(25, 101, 19, 1)" stroke-width="1.5"></path><path d="M549.02 355.55L679.5 344.24" stroke="rgba(25, 101, 19, 1)" stroke-width="1.5"></path><path d="M549.02 355.55L649.11 520.11" stroke="rgba(25, 101, 19, 1)" stroke-width="1.5"></path><path d="M549.02 355.55L524.58 552.85" stroke="rgba(25, 101, 19, 1)" stroke-width="1.5"></path><path d="M549.02 355.55L400.91 557.64" stroke="rgba(25, 101, 19, 1)" stroke-width="1.5"></path><path d="M524.58 552.85L524.58 552.85" stroke="rgba(25, 101, 19, 1)" stroke-width="1.5"></path><path d="M524.58 552.85L522.88 657.23" stroke="rgba(25, 101, 19, 1)" stroke-width="1.5"></path><path d="M524.58 552.85L649.11 520.11" stroke="rgba(25, 101, 19, 1)" stroke-width="1.5"></path><path d="M522.88 657.23L522.88 657.23" stroke="rgba(25, 101, 19, 1)" stroke-width="1.5"></path><path d="M522.88 657.23L400.91 557.64" stroke="rgba(25, 101, 19, 1)" stroke-width="1.5"></path><path d="M522.88 657.23L693.55 649.47" stroke="rgba(25, 101, 19, 1)" stroke-width="1.5"></path><path d="M522.88 657.23L649.11 520.11" stroke="rgba(25, 101, 19, 1)" stroke-width="1.5"></path><path d="M679.5 344.24L679.5 344.24" stroke="rgba(25, 101, 19, 1)" stroke-width="1.5"></path><path d="M679.5 344.24L649.11 520.11" stroke="rgba(25, 101, 19, 1)" stroke-width="1.5"></path><path d="M679.5 344.24L860.83 392.31" stroke="rgba(25, 101, 19, 1)" stroke-width="1.5"></path><path d="M679.5 344.24L820.21 192.22" stroke="rgba(25, 101, 19, 1)" stroke-width="1.5"></path><path d="M649.11 520.11L649.11 520.11" stroke="rgba(25, 101, 19, 1)" stroke-width="1.5"></path><path d="M649.11 520.11L693.55 649.47" stroke="rgba(25, 101, 19, 1)" stroke-width="1.5"></path><path d="M649.11 520.11L813.18 520.08" stroke="rgba(25, 101, 19, 1)" stroke-width="1.5"></path><path d="M693.55 649.47L693.55 649.47" stroke="rgba(25, 101, 19, 1)" stroke-width="1.5"></path><path d="M693.55 649.47L830.42 661.62" stroke="rgba(25, 101, 19, 1)" stroke-width="1.5"></path><path d="M820.21 192.22L820.21 192.22" stroke="rgba(25, 101, 19, 1)" stroke-width="1.5"></path><path d="M820.21 192.22L955.42 224.94" stroke="rgba(25, 101, 19, 1)" stroke-width="1.5"></path><path d="M820.21 192.22L942.55 112.34" stroke="rgba(25, 101, 19, 1)" stroke-width="1.5"></path><path d="M820.21 192.22L860.83 392.31" stroke="rgba(25, 101, 19, 1)" stroke-width="1.5"></path><path d="M860.83 392.31L860.83 392.31" stroke="rgba(25, 101, 19, 1)" stroke-width="1.5"></path><path d="M860.83 392.31L938.85 403.75" stroke="rgba(25, 101, 19, 1)" stroke-width="1.5"></path><path d="M860.83 392.31L813.18 520.08" stroke="rgba(25, 101, 19, 1)" stroke-width="1.5"></path><path d="M860.83 392.31L993.55 509.34" stroke="rgba(25, 101, 19, 1)" stroke-width="1.5"></path><path d="M860.83 392.31L955.42 224.94" stroke="rgba(25, 101, 19, 1)" stroke-width="1.5"></path><path d="M813.18 520.08L813.18 520.08" stroke="rgba(25, 101, 19, 1)" stroke-width="1.5"></path><path d="M813.18 520.08L830.42 661.62" stroke="rgba(25, 101, 19, 1)" stroke-width="1.5"></path><path d="M830.42 661.62L830.42 661.62" stroke="rgba(25, 101, 19, 1)" stroke-width="1.5"></path><path d="M994.39 -54.06L994.39 -54.06" stroke="rgba(25, 101, 19, 1)" stroke-width="1.5"></path><path d="M994.39 -54.06L1120.72 -93.26" stroke="rgba(25, 101, 19, 1)" stroke-width="1.5"></path><path d="M994.39 -54.06L1099.18 40.79" stroke="rgba(25, 101, 19, 1)" stroke-width="1.5"></path><path d="M994.39 -54.06L942.55 112.34" stroke="rgba(25, 101, 19, 1)" stroke-width="1.5"></path><path d="M942.55 112.34L942.55 112.34" stroke="rgba(25, 101, 19, 1)" stroke-width="1.5"></path><path d="M942.55 112.34L955.42 224.94" stroke="rgba(25, 101, 19, 1)" stroke-width="1.5"></path><path d="M942.55 112.34L1099.18 40.79" stroke="rgba(25, 101, 19, 1)" stroke-width="1.5"></path><path d="M955.42 224.94L955.42 224.94" stroke="rgba(25, 101, 19, 1)" stroke-width="1.5"></path><path d="M955.42 224.94L938.85 403.75" stroke="rgba(25, 101, 19, 1)" stroke-width="1.5"></path><path d="M955.42 224.94L1148.03 237.13" stroke="rgba(25, 101, 19, 1)" stroke-width="1.5"></path><path d="M938.85 403.75L938.85 403.75" stroke="rgba(25, 101, 19, 1)" stroke-width="1.5"></path><path d="M938.85 403.75L993.55 509.34" stroke="rgba(25, 101, 19, 1)" stroke-width="1.5"></path><path d="M938.85 403.75L813.18 520.08" stroke="rgba(25, 101, 19, 1)" stroke-width="1.5"></path><path d="M993.55 509.34L993.55 509.34" stroke="rgba(25, 101, 19, 1)" stroke-width="1.5"></path><path d="M993.55 509.34L1100.91 551.56" stroke="rgba(25, 101, 19, 1)" stroke-width="1.5"></path><path d="M993.55 509.34L813.18 520.08" stroke="rgba(25, 101, 19, 1)" stroke-width="1.5"></path><path d="M1120.72 -93.26L1120.72 -93.26" stroke="rgba(25, 101, 19, 1)" stroke-width="1.5"></path><path d="M1120.72 -93.26L1241.09 -55.98" stroke="rgba(25, 101, 19, 1)" stroke-width="1.5"></path><path d="M1120.72 -93.26L1099.18 40.79" stroke="rgba(25, 101, 19, 1)" stroke-width="1.5"></path><path d="M1120.72 -93.26L1238.59 102.73" stroke="rgba(25, 101, 19, 1)" stroke-width="1.5"></path><path d="M1120.72 -93.26L942.55 112.34" stroke="rgba(25, 101, 19, 1)" stroke-width="1.5"></path><path d="M1120.72 -93.26L1428.44 -75.46" stroke="rgba(25, 101, 19, 1)" stroke-width="1.5"></path><path d="M1099.18 40.79L1099.18 40.79" stroke="rgba(25, 101, 19, 1)" stroke-width="1.5"></path><path d="M1099.18 40.79L1238.59 102.73" stroke="rgba(25, 101, 19, 1)" stroke-width="1.5"></path><path d="M1148.03 237.13L1148.03 237.13" stroke="rgba(25, 101, 19, 1)" stroke-width="1.5"></path><path d="M1148.03 237.13L1128.15 350.22" stroke="rgba(25, 101, 19, 1)" stroke-width="1.5"></path><path d="M1148.03 237.13L1238.59 102.73" stroke="rgba(25, 101, 19, 1)" stroke-width="1.5"></path><path d="M1128.15 350.22L1128.15 350.22" stroke="rgba(25, 101, 19, 1)" stroke-width="1.5"></path><path d="M1128.15 350.22L1264.39 396.12" stroke="rgba(25, 101, 19, 1)" stroke-width="1.5"></path><path d="M1100.91 551.56L1100.91 551.56" stroke="rgba(25, 101, 19, 1)" stroke-width="1.5"></path><path d="M1100.91 551.56L1119.34 704.35" stroke="rgba(25, 101, 19, 1)" stroke-width="1.5"></path><path d="M1100.91 551.56L1267.19 536.09" stroke="rgba(25, 101, 19, 1)" stroke-width="1.5"></path><path d="M1100.91 551.56L1128.15 350.22" stroke="rgba(25, 101, 19, 1)" stroke-width="1.5"></path><path d="M1100.91 551.56L938.85 403.75" stroke="rgba(25, 101, 19, 1)" stroke-width="1.5"></path><path d="M1119.34 704.35L1119.34 704.35" stroke="rgba(25, 101, 19, 1)" stroke-width="1.5"></path><path d="M1119.34 704.35L1310.73 663.89" stroke="rgba(25, 101, 19, 1)" stroke-width="1.5"></path><path d="M1119.34 704.35L1267.19 536.09" stroke="rgba(25, 101, 19, 1)" stroke-width="1.5"></path><path d="M1119.34 704.35L993.55 509.34" stroke="rgba(25, 101, 19, 1)" stroke-width="1.5"></path><path d="M1119.34 704.35L830.42 661.62" stroke="rgba(25, 101, 19, 1)" stroke-width="1.5"></path><path d="M1241.09 -55.98L1241.09 -55.98" stroke="rgba(25, 101, 19, 1)" stroke-width="1.5"></path><path d="M1241.09 -55.98L1238.59 102.73" stroke="rgba(25, 101, 19, 1)" stroke-width="1.5"></path><path d="M1241.09 -55.98L1099.18 40.79" stroke="rgba(25, 101, 19, 1)" stroke-width="1.5"></path><path d="M1241.09 -55.98L1428.44 -75.46" stroke="rgba(25, 101, 19, 1)" stroke-width="1.5"></path><path d="M1238.59 102.73L1238.59 102.73" stroke="rgba(25, 101, 19, 1)" stroke-width="1.5"></path><path d="M1264.39 396.12L1264.39 396.12" stroke="rgba(25, 101, 19, 1)" stroke-width="1.5"></path><path d="M1264.39 396.12L1397.28 374.28" stroke="rgba(25, 101, 19, 1)" stroke-width="1.5"></path><path d="M1267.19 536.09L1267.19 536.09" stroke="rgba(25, 101, 19, 1)" stroke-width="1.5"></path><path d="M1267.19 536.09L1310.73 663.89" stroke="rgba(25, 101, 19, 1)" stroke-width="1.5"></path><path d="M1310.73 663.89L1310.73 663.89" stroke="rgba(25, 101, 19, 1)" stroke-width="1.5"></path><path d="M1310.73 663.89L1461.25 641.02" stroke="rgba(25, 101, 19, 1)" stroke-width="1.5"></path><path d="M1310.73 663.89L1440.97 492.45" stroke="rgba(25, 101, 19, 1)" stroke-width="1.5"></path><path d="M1310.73 663.89L1100.91 551.56" stroke="rgba(25, 101, 19, 1)" stroke-width="1.5"></path><path d="M1428.44 -75.46L1428.44 -75.46" stroke="rgba(25, 101, 19, 1)" stroke-width="1.5"></path><path d="M1428.44 -75.46L1453.24 45.42" stroke="rgba(25, 101, 19, 1)" stroke-width="1.5"></path><path d="M1428.44 -75.46L1591.26 -72.71" stroke="rgba(25, 101, 19, 1)" stroke-width="1.5"></path><path d="M1428.44 -75.46L1570.7 39.57" stroke="rgba(25, 101, 19, 1)" stroke-width="1.5"></path><path d="M1453.24 45.42L1453.24 45.42" stroke="rgba(25, 101, 19, 1)" stroke-width="1.5"></path><path d="M1453.24 45.42L1570.7 39.57" stroke="rgba(25, 101, 19, 1)" stroke-width="1.5"></path><path d="M1453.24 45.42L1591.26 -72.71" stroke="rgba(25, 101, 19, 1)" stroke-width="1.5"></path><path d="M1453.24 45.42L1430.79 232.19" stroke="rgba(25, 101, 19, 1)" stroke-width="1.5"></path><path d="M1430.79 232.19L1430.79 232.19" stroke="rgba(25, 101, 19, 1)" stroke-width="1.5"></path><path d="M1430.79 232.19L1397.28 374.28" stroke="rgba(25, 101, 19, 1)" stroke-width="1.5"></path><path d="M1430.79 232.19L1607.23 200.46" stroke="rgba(25, 101, 19, 1)" stroke-width="1.5"></path><path d="M1430.79 232.19L1582.87 344.35" stroke="rgba(25, 101, 19, 1)" stroke-width="1.5"></path><path d="M1397.28 374.28L1397.28 374.28" stroke="rgba(25, 101, 19, 1)" stroke-width="1.5"></path><path d="M1397.28 374.28L1440.97 492.45" stroke="rgba(25, 101, 19, 1)" stroke-width="1.5"></path><path d="M1440.97 492.45L1440.97 492.45" stroke="rgba(25, 101, 19, 1)" stroke-width="1.5"></path><path d="M1440.97 492.45L1568.08 555.85" stroke="rgba(25, 101, 19, 1)" stroke-width="1.5"></path><path d="M1440.97 492.45L1461.25 641.02" stroke="rgba(25, 101, 19, 1)" stroke-width="1.5"></path><path d="M1440.97 492.45L1267.19 536.09" stroke="rgba(25, 101, 19, 1)" stroke-width="1.5"></path><path d="M1440.97 492.45L1264.39 396.12" stroke="rgba(25, 101, 19, 1)" stroke-width="1.5"></path><path d="M1461.25 641.02L1461.25 641.02" stroke="rgba(25, 101, 19, 1)" stroke-width="1.5"></path><path d="M1461.25 641.02L1568.08 555.85" stroke="rgba(25, 101, 19, 1)" stroke-width="1.5"></path><path d="M1461.25 641.02L1267.19 536.09" stroke="rgba(25, 101, 19, 1)" stroke-width="1.5"></path><path d="M1461.25 641.02L1397.28 374.28" stroke="rgba(25, 101, 19, 1)" stroke-width="1.5"></path><path d="M1591.26 -72.71L1591.26 -72.71" stroke="rgba(25, 101, 19, 1)" stroke-width="1.5"></path><path d="M1591.26 -72.71L1570.7 39.57" stroke="rgba(25, 101, 19, 1)" stroke-width="1.5"></path><path d="M1591.26 -72.71L1607.23 200.46" stroke="rgba(25, 101, 19, 1)" stroke-width="1.5"></path><path d="M1570.7 39.57L1570.7 39.57" stroke="rgba(25, 101, 19, 1)" stroke-width="1.5"></path><path d="M1570.7 39.57L1607.23 200.46" stroke="rgba(25, 101, 19, 1)" stroke-width="1.5"></path><path d="M1570.7 39.57L1430.79 232.19" stroke="rgba(25, 101, 19, 1)" stroke-width="1.5"></path><path d="M1607.23 200.46L1607.23 200.46" stroke="rgba(25, 101, 19, 1)" stroke-width="1.5"></path><path d="M1607.23 200.46L1582.87 344.35" stroke="rgba(25, 101, 19, 1)" stroke-width="1.5"></path><path d="M1582.87 344.35L1582.87 344.35" stroke="rgba(25, 101, 19, 1)" stroke-width="1.5"></path><path d="M1582.87 344.35L1397.28 374.28" stroke="rgba(25, 101, 19, 1)" stroke-width="1.5"></path><path d="M1568.08 555.85L1568.08 555.85" stroke="rgba(25, 101, 19, 1)" stroke-width="1.5"></path><circle r="5" cx="-91.66" cy="399.12" fill="rgba(25, 101, 19, 1)"></circle><circle r="5" cx="-109.17" cy="501.59" fill="rgba(25, 101, 19, 1)"></circle><circle r="5" cx="-97.39" cy="674.81" fill="rgba(25, 101, 19, 1)"></circle><circle r="5" cx="62.97" cy="375.44" fill="rgba(25, 101, 19, 1)"></circle><circle r="5" cx="107.95" cy="527.09" fill="rgba(25, 101, 19, 1)"></circle><circle r="5" cx="50.69" cy="656.58" fill="rgba(25, 101, 19, 1)"></circle><circle r="5" cx="240.22" cy="373.95" fill="rgba(25, 101, 19, 1)"></circle><circle r="5" cx="232.5" cy="528.31" fill="rgba(25, 101, 19, 1)"></circle><circle r="5" cx="230.21" cy="693.46" fill="rgba(25, 101, 19, 1)"></circle><circle r="5" cx="400.91" cy="557.64" fill="rgba(25, 101, 19, 1)"></circle><circle r="5" cx="396.32" cy="701.86" fill="rgba(25, 101, 19, 1)"></circle><circle r="5" cx="549.02" cy="355.55" fill="rgba(25, 101, 19, 1)"></circle><circle r="5" cx="524.58" cy="552.85" fill="rgba(25, 101, 19, 1)"></circle><circle r="5" cx="522.88" cy="657.23" fill="rgba(25, 101, 19, 1)"></circle><circle r="5" cx="679.5" cy="344.24" fill="rgba(25, 101, 19, 1)"></circle><circle r="5" cx="649.11" cy="520.11" fill="rgba(25, 101, 19, 1)"></circle><circle r="5" cx="693.55" cy="649.47" fill="rgba(25, 101, 19, 1)"></circle><circle r="5" cx="820.21" cy="192.22" fill="rgba(25, 101, 19, 1)"></circle><circle r="5" cx="860.83" cy="392.31" fill="rgba(25, 101, 19, 1)"></circle><circle r="5" cx="813.18" cy="520.08" fill="rgba(25, 101, 19, 1)"></circle><circle r="5" cx="830.42" cy="661.62" fill="rgba(25, 101, 19, 1)"></circle><circle r="5" cx="994.39" cy="-54.06" fill="rgba(25, 101, 19, 1)"></circle><circle r="5" cx="942.55" cy="112.34" fill="rgba(25, 101, 19, 1)"></circle><circle r="5" cx="955.42" cy="224.94" fill="rgba(25, 101, 19, 1)"></circle><circle r="5" cx="938.85" cy="403.75" fill="rgba(25, 101, 19, 1)"></circle><circle r="5" cx="993.55" cy="509.34" fill="rgba(25, 101, 19, 1)"></circle><circle r="5" cx="1120.72" cy="-93.26" fill="rgba(25, 101, 19, 1)"></circle><circle r="5" cx="1099.18" cy="40.79" fill="rgba(25, 101, 19, 1)"></circle><circle r="5" cx="1148.03" cy="237.13" fill="rgba(25, 101, 19, 1)"></circle><circle r="5" cx="1128.15" cy="350.22" fill="rgba(25, 101, 19, 1)"></circle><circle r="5" cx="1100.91" cy="551.56" fill="rgba(25, 101, 19, 1)"></circle><circle r="5" cx="1119.34" cy="704.35" fill="rgba(25, 101, 19, 1)"></circle><circle r="5" cx="1241.09" cy="-55.98" fill="rgba(25, 101, 19, 1)"></circle><circle r="5" cx="1238.59" cy="102.73" fill="rgba(25, 101, 19, 1)"></circle><circle r="5" cx="1264.39" cy="396.12" fill="rgba(25, 101, 19, 1)"></circle><circle r="5" cx="1267.19" cy="536.09" fill="rgba(25, 101, 19, 1)"></circle><circle r="5" cx="1310.73" cy="663.89" fill="rgba(25, 101, 19, 1)"></circle><circle r="5" cx="1428.44" cy="-75.46" fill="rgba(25, 101, 19, 1)"></circle><circle r="5" cx="1453.24" cy="45.42" fill="rgba(25, 101, 19, 1)"></circle><circle r="5" cx="1430.79" cy="232.19" fill="rgba(25, 101, 19, 1)"></circle><circle r="5" cx="1397.28" cy="374.28" fill="rgba(25, 101, 19, 1)"></circle><circle r="5" cx="1440.97" cy="492.45" fill="rgba(25, 101, 19, 1)"></circle><circle r="5" cx="1461.25" cy="641.02" fill="rgba(25, 101, 19, 1)"></circle><circle r="5" cx="1591.26" cy="-72.71" fill="rgba(25, 101, 19, 1)"></circle><circle r="5" cx="1570.7" cy="39.57" fill="rgba(25, 101, 19, 1)"></circle><circle r="5" cx="1607.23" cy="200.46" fill="rgba(25, 101, 19, 1)"></circle><circle r="5" cx="1582.87" cy="344.35" fill="rgba(25, 101, 19, 1)"></circle><circle r="5" cx="1568.08" cy="555.85" fill="rgba(25, 101, 19, 1)"></circle><path d="M357.53 526L357.53 526" stroke="hsl(116.80000000000001, 72.5%, 52%)" stroke-width="1.5"></path><path d="M357.53 526L237.28 532.53" stroke="hsl(116.80000000000001, 72.5%, 52%)" stroke-width="1.5"></path><path d="M670.01 527.46L670.01 527.46" stroke="hsl(116.80000000000001, 72.5%, 52%)" stroke-width="1.5"></path><path d="M670.01 527.46L704.63 396.21" stroke="hsl(116.80000000000001, 72.5%, 52%)" stroke-width="1.5"></path><path d="M670.01 527.46L516.67 521.38" stroke="hsl(116.80000000000001, 72.5%, 52%)" stroke-width="1.5"></path><path d="M670.01 527.46L829.66 526.49" stroke="hsl(116.80000000000001, 72.5%, 52%)" stroke-width="1.5"></path><path d="M670.01 527.46L676.45 692.49" stroke="hsl(116.80000000000001, 72.5%, 52%)" stroke-width="1.5"></path><path d="M670.01 527.46L537.27 681.53" stroke="hsl(116.80000000000001, 72.5%, 52%)" stroke-width="1.5"></path><path d="M670.01 527.46L840.63 410.67" stroke="hsl(116.80000000000001, 72.5%, 52%)" stroke-width="1.5"></path><path d="M937.88 529.55L937.88 529.55" stroke="hsl(116.80000000000001, 72.5%, 52%)" stroke-width="1.5"></path><path d="M937.88 529.55L829.66 526.49" stroke="hsl(116.80000000000001, 72.5%, 52%)" stroke-width="1.5"></path><path d="M937.88 529.55L840.63 410.67" stroke="hsl(116.80000000000001, 72.5%, 52%)" stroke-width="1.5"></path><path d="M1397.98 53.24L1397.98 53.24" stroke="hsl(116.80000000000001, 72.5%, 52%)" stroke-width="1.5"></path><path d="M1397.98 53.24L1425.73 -42.15" stroke="hsl(116.80000000000001, 72.5%, 52%)" stroke-width="1.5"></path><path d="M-53.46 537.89L-53.46 537.89" stroke="hsl(116.80000000000001, 72.5%, 52%)" stroke-width="1.5"></path><path d="M-53.46 537.89L58.28 641.8" stroke="hsl(116.80000000000001, 72.5%, 52%)" stroke-width="1.5"></path><path d="M-78.91 693.21L-78.91 693.21" stroke="hsl(116.80000000000001, 72.5%, 52%)" stroke-width="1.5"></path><path d="M-78.91 693.21L58.28 641.8" stroke="hsl(116.80000000000001, 72.5%, 52%)" stroke-width="1.5"></path><path d="M-78.91 693.21L-53.46 537.89" stroke="hsl(116.80000000000001, 72.5%, 52%)" stroke-width="1.5"></path><path d="M-78.91 693.21L198.99 644.43" stroke="hsl(116.80000000000001, 72.5%, 52%)" stroke-width="1.5"></path><path d="M-78.91 693.21L237.28 532.53" stroke="hsl(116.80000000000001, 72.5%, 52%)" stroke-width="1.5"></path><path d="M-78.91 693.21L357.53 526" stroke="hsl(116.80000000000001, 72.5%, 52%)" stroke-width="1.5"></path><path d="M58.28 641.8L58.28 641.8" stroke="hsl(116.80000000000001, 72.5%, 52%)" stroke-width="1.5"></path><path d="M58.28 641.8L198.99 644.43" stroke="hsl(116.80000000000001, 72.5%, 52%)" stroke-width="1.5"></path><path d="M237.28 532.53L237.28 532.53" stroke="hsl(116.80000000000001, 72.5%, 52%)" stroke-width="1.5"></path><path d="M237.28 532.53L198.99 644.43" stroke="hsl(116.80000000000001, 72.5%, 52%)" stroke-width="1.5"></path><path d="M237.28 532.53L58.28 641.8" stroke="hsl(116.80000000000001, 72.5%, 52%)" stroke-width="1.5"></path><path d="M198.99 644.43L198.99 644.43" stroke="hsl(116.80000000000001, 72.5%, 52%)" stroke-width="1.5"></path><path d="M198.99 644.43L357.53 526" stroke="hsl(116.80000000000001, 72.5%, 52%)" stroke-width="1.5"></path><path d="M516.67 521.38L516.67 521.38" stroke="hsl(116.80000000000001, 72.5%, 52%)" stroke-width="1.5"></path><path d="M516.67 521.38L357.53 526" stroke="hsl(116.80000000000001, 72.5%, 52%)" stroke-width="1.5"></path><path d="M537.27 681.53L537.27 681.53" stroke="hsl(116.80000000000001, 72.5%, 52%)" stroke-width="1.5"></path><path d="M537.27 681.53L676.45 692.49" stroke="hsl(116.80000000000001, 72.5%, 52%)" stroke-width="1.5"></path><path d="M537.27 681.53L516.67 521.38" stroke="hsl(116.80000000000001, 72.5%, 52%)" stroke-width="1.5"></path><path d="M537.27 681.53L357.53 526" stroke="hsl(116.80000000000001, 72.5%, 52%)" stroke-width="1.5"></path><path d="M537.27 681.53L838.85 701.28" stroke="hsl(116.80000000000001, 72.5%, 52%)" stroke-width="1.5"></path><path d="M537.27 681.53L704.63 396.21" stroke="hsl(116.80000000000001, 72.5%, 52%)" stroke-width="1.5"></path><path d="M704.63 396.21L704.63 396.21" stroke="hsl(116.80000000000001, 72.5%, 52%)" stroke-width="1.5"></path><path d="M676.45 692.49L676.45 692.49" stroke="hsl(116.80000000000001, 72.5%, 52%)" stroke-width="1.5"></path><path d="M676.45 692.49L838.85 701.28" stroke="hsl(116.80000000000001, 72.5%, 52%)" stroke-width="1.5"></path><path d="M676.45 692.49L829.66 526.49" stroke="hsl(116.80000000000001, 72.5%, 52%)" stroke-width="1.5"></path><path d="M676.45 692.49L516.67 521.38" stroke="hsl(116.80000000000001, 72.5%, 52%)" stroke-width="1.5"></path><path d="M676.45 692.49L942.44 685.43" stroke="hsl(116.80000000000001, 72.5%, 52%)" stroke-width="1.5"></path><path d="M840.63 410.67L840.63 410.67" stroke="hsl(116.80000000000001, 72.5%, 52%)" stroke-width="1.5"></path><path d="M840.63 410.67L938.85 372.64" stroke="hsl(116.80000000000001, 72.5%, 52%)" stroke-width="1.5"></path><path d="M840.63 410.67L829.66 526.49" stroke="hsl(116.80000000000001, 72.5%, 52%)" stroke-width="1.5"></path><path d="M840.63 410.67L704.63 396.21" stroke="hsl(116.80000000000001, 72.5%, 52%)" stroke-width="1.5"></path><path d="M840.63 410.67L1112.01 348.37" stroke="hsl(116.80000000000001, 72.5%, 52%)" stroke-width="1.5"></path><path d="M829.66 526.49L829.66 526.49" stroke="hsl(116.80000000000001, 72.5%, 52%)" stroke-width="1.5"></path><path d="M838.85 701.28L838.85 701.28" stroke="hsl(116.80000000000001, 72.5%, 52%)" stroke-width="1.5"></path><path d="M838.85 701.28L942.44 685.43" stroke="hsl(116.80000000000001, 72.5%, 52%)" stroke-width="1.5"></path><path d="M838.85 701.28L829.66 526.49" stroke="hsl(116.80000000000001, 72.5%, 52%)" stroke-width="1.5"></path><path d="M938.85 372.64L938.85 372.64" stroke="hsl(116.80000000000001, 72.5%, 52%)" stroke-width="1.5"></path><path d="M938.85 372.64L937.88 529.55" stroke="hsl(116.80000000000001, 72.5%, 52%)" stroke-width="1.5"></path><path d="M938.85 372.64L1112.01 348.37" stroke="hsl(116.80000000000001, 72.5%, 52%)" stroke-width="1.5"></path><path d="M938.85 372.64L829.66 526.49" stroke="hsl(116.80000000000001, 72.5%, 52%)" stroke-width="1.5"></path><path d="M938.85 372.64L1109.93 240.02" stroke="hsl(116.80000000000001, 72.5%, 52%)" stroke-width="1.5"></path><path d="M938.85 372.64L704.63 396.21" stroke="hsl(116.80000000000001, 72.5%, 52%)" stroke-width="1.5"></path><path d="M942.44 685.43L942.44 685.43" stroke="hsl(116.80000000000001, 72.5%, 52%)" stroke-width="1.5"></path><path d="M942.44 685.43L937.88 529.55" stroke="hsl(116.80000000000001, 72.5%, 52%)" stroke-width="1.5"></path><path d="M1136.26 105.75L1136.26 105.75" stroke="hsl(116.80000000000001, 72.5%, 52%)" stroke-width="1.5"></path><path d="M1136.26 105.75L1109.93 240.02" stroke="hsl(116.80000000000001, 72.5%, 52%)" stroke-width="1.5"></path><path d="M1136.26 105.75L1298.94 103.88" stroke="hsl(116.80000000000001, 72.5%, 52%)" stroke-width="1.5"></path><path d="M1136.26 105.75L1309.85 204.05" stroke="hsl(116.80000000000001, 72.5%, 52%)" stroke-width="1.5"></path><path d="M1136.26 105.75L1262.71 -82.67" stroke="hsl(116.80000000000001, 72.5%, 52%)" stroke-width="1.5"></path><path d="M1109.93 240.02L1109.93 240.02" stroke="hsl(116.80000000000001, 72.5%, 52%)" stroke-width="1.5"></path><path d="M1109.93 240.02L1112.01 348.37" stroke="hsl(116.80000000000001, 72.5%, 52%)" stroke-width="1.5"></path><path d="M1109.93 240.02L1309.85 204.05" stroke="hsl(116.80000000000001, 72.5%, 52%)" stroke-width="1.5"></path><path d="M1109.93 240.02L1248.74 395.29" stroke="hsl(116.80000000000001, 72.5%, 52%)" stroke-width="1.5"></path><path d="M1109.93 240.02L1298.94 103.88" stroke="hsl(116.80000000000001, 72.5%, 52%)" stroke-width="1.5"></path><path d="M1112.01 348.37L1112.01 348.37" stroke="hsl(116.80000000000001, 72.5%, 52%)" stroke-width="1.5"></path><path d="M1112.01 348.37L1248.74 395.29" stroke="hsl(116.80000000000001, 72.5%, 52%)" stroke-width="1.5"></path><path d="M1118.35 527.06L1118.35 527.06" stroke="hsl(116.80000000000001, 72.5%, 52%)" stroke-width="1.5"></path><path d="M1118.35 527.06L1138.54 688.86" stroke="hsl(116.80000000000001, 72.5%, 52%)" stroke-width="1.5"></path><path d="M1118.35 527.06L1112.01 348.37" stroke="hsl(116.80000000000001, 72.5%, 52%)" stroke-width="1.5"></path><path d="M1138.54 688.86L1138.54 688.86" stroke="hsl(116.80000000000001, 72.5%, 52%)" stroke-width="1.5"></path><path d="M1138.54 688.86L1288.89 711.22" stroke="hsl(116.80000000000001, 72.5%, 52%)" stroke-width="1.5"></path><path d="M1138.54 688.86L942.44 685.43" stroke="hsl(116.80000000000001, 72.5%, 52%)" stroke-width="1.5"></path><path d="M1262.71 -82.67L1262.71 -82.67" stroke="hsl(116.80000000000001, 72.5%, 52%)" stroke-width="1.5"></path><path d="M1262.71 -82.67L1425.73 -42.15" stroke="hsl(116.80000000000001, 72.5%, 52%)" stroke-width="1.5"></path><path d="M1262.71 -82.67L1298.94 103.88" stroke="hsl(116.80000000000001, 72.5%, 52%)" stroke-width="1.5"></path><path d="M1262.71 -82.67L1397.98 53.24" stroke="hsl(116.80000000000001, 72.5%, 52%)" stroke-width="1.5"></path><path d="M1298.94 103.88L1298.94 103.88" stroke="hsl(116.80000000000001, 72.5%, 52%)" stroke-width="1.5"></path><path d="M1298.94 103.88L1309.85 204.05" stroke="hsl(116.80000000000001, 72.5%, 52%)" stroke-width="1.5"></path><path d="M1298.94 103.88L1397.98 53.24" stroke="hsl(116.80000000000001, 72.5%, 52%)" stroke-width="1.5"></path><path d="M1298.94 103.88L1432.97 194.53" stroke="hsl(116.80000000000001, 72.5%, 52%)" stroke-width="1.5"></path><path d="M1309.85 204.05L1309.85 204.05" stroke="hsl(116.80000000000001, 72.5%, 52%)" stroke-width="1.5"></path><path d="M1309.85 204.05L1432.97 194.53" stroke="hsl(116.80000000000001, 72.5%, 52%)" stroke-width="1.5"></path><path d="M1309.85 204.05L1397.98 53.24" stroke="hsl(116.80000000000001, 72.5%, 52%)" stroke-width="1.5"></path><path d="M1248.74 395.29L1248.74 395.29" stroke="hsl(116.80000000000001, 72.5%, 52%)" stroke-width="1.5"></path><path d="M1248.74 395.29L1307.6 493.46" stroke="hsl(116.80000000000001, 72.5%, 52%)" stroke-width="1.5"></path><path d="M1248.74 395.29L1118.35 527.06" stroke="hsl(116.80000000000001, 72.5%, 52%)" stroke-width="1.5"></path><path d="M1248.74 395.29L1401.97 505.26" stroke="hsl(116.80000000000001, 72.5%, 52%)" stroke-width="1.5"></path><path d="M1248.74 395.29L1309.85 204.05" stroke="hsl(116.80000000000001, 72.5%, 52%)" stroke-width="1.5"></path><path d="M1307.6 493.46L1307.6 493.46" stroke="hsl(116.80000000000001, 72.5%, 52%)" stroke-width="1.5"></path><path d="M1307.6 493.46L1401.97 505.26" stroke="hsl(116.80000000000001, 72.5%, 52%)" stroke-width="1.5"></path><path d="M1307.6 493.46L1450.02 407.64" stroke="hsl(116.80000000000001, 72.5%, 52%)" stroke-width="1.5"></path><path d="M1288.89 711.22L1288.89 711.22" stroke="hsl(116.80000000000001, 72.5%, 52%)" stroke-width="1.5"></path><path d="M1288.89 711.22L1449.43 663.21" stroke="hsl(116.80000000000001, 72.5%, 52%)" stroke-width="1.5"></path><path d="M1288.89 711.22L1307.6 493.46" stroke="hsl(116.80000000000001, 72.5%, 52%)" stroke-width="1.5"></path><path d="M1288.89 711.22L1401.97 505.26" stroke="hsl(116.80000000000001, 72.5%, 52%)" stroke-width="1.5"></path><path d="M1288.89 711.22L1118.35 527.06" stroke="hsl(116.80000000000001, 72.5%, 52%)" stroke-width="1.5"></path><path d="M1288.89 711.22L1248.74 395.29" stroke="hsl(116.80000000000001, 72.5%, 52%)" stroke-width="1.5"></path><path d="M1425.73 -42.15L1425.73 -42.15" stroke="hsl(116.80000000000001, 72.5%, 52%)" stroke-width="1.5"></path><path d="M1425.73 -42.15L1562.95 -108.77" stroke="hsl(116.80000000000001, 72.5%, 52%)" stroke-width="1.5"></path><path d="M1432.97 194.53L1432.97 194.53" stroke="hsl(116.80000000000001, 72.5%, 52%)" stroke-width="1.5"></path><path d="M1432.97 194.53L1397.98 53.24" stroke="hsl(116.80000000000001, 72.5%, 52%)" stroke-width="1.5"></path><path d="M1432.97 194.53L1606.92 241.86" stroke="hsl(116.80000000000001, 72.5%, 52%)" stroke-width="1.5"></path><path d="M1432.97 194.53L1450.02 407.64" stroke="hsl(116.80000000000001, 72.5%, 52%)" stroke-width="1.5"></path><path d="M1450.02 407.64L1450.02 407.64" stroke="hsl(116.80000000000001, 72.5%, 52%)" stroke-width="1.5"></path><path d="M1450.02 407.64L1401.97 505.26" stroke="hsl(116.80000000000001, 72.5%, 52%)" stroke-width="1.5"></path><path d="M1450.02 407.64L1559.93 405.02" stroke="hsl(116.80000000000001, 72.5%, 52%)" stroke-width="1.5"></path><path d="M1450.02 407.64L1248.74 395.29" stroke="hsl(116.80000000000001, 72.5%, 52%)" stroke-width="1.5"></path><path d="M1401.97 505.26L1401.97 505.26" stroke="hsl(116.80000000000001, 72.5%, 52%)" stroke-width="1.5"></path><path d="M1401.97 505.26L1449.43 663.21" stroke="hsl(116.80000000000001, 72.5%, 52%)" stroke-width="1.5"></path><path d="M1401.97 505.26L1559.93 405.02" stroke="hsl(116.80000000000001, 72.5%, 52%)" stroke-width="1.5"></path><path d="M1449.43 663.21L1449.43 663.21" stroke="hsl(116.80000000000001, 72.5%, 52%)" stroke-width="1.5"></path><path d="M1449.43 663.21L1611.65 659.9" stroke="hsl(116.80000000000001, 72.5%, 52%)" stroke-width="1.5"></path><path d="M1449.43 663.21L1307.6 493.46" stroke="hsl(116.80000000000001, 72.5%, 52%)" stroke-width="1.5"></path><path d="M1562.95 -108.77L1562.95 -108.77" stroke="hsl(116.80000000000001, 72.5%, 52%)" stroke-width="1.5"></path><path d="M1562.95 -108.77L1397.98 53.24" stroke="hsl(116.80000000000001, 72.5%, 52%)" stroke-width="1.5"></path><path d="M1562.95 -108.77L1262.71 -82.67" stroke="hsl(116.80000000000001, 72.5%, 52%)" stroke-width="1.5"></path><path d="M1562.95 -108.77L1432.97 194.53" stroke="hsl(116.80000000000001, 72.5%, 52%)" stroke-width="1.5"></path><path d="M1606.92 241.86L1606.92 241.86" stroke="hsl(116.80000000000001, 72.5%, 52%)" stroke-width="1.5"></path><path d="M1606.92 241.86L1559.93 405.02" stroke="hsl(116.80000000000001, 72.5%, 52%)" stroke-width="1.5"></path><path d="M1559.93 405.02L1559.93 405.02" stroke="hsl(116.80000000000001, 72.5%, 52%)" stroke-width="1.5"></path><path d="M1559.93 405.02L1432.97 194.53" stroke="hsl(116.80000000000001, 72.5%, 52%)" stroke-width="1.5"></path><path d="M1559.93 405.02L1611.65 659.9" stroke="hsl(116.80000000000001, 72.5%, 52%)" stroke-width="1.5"></path><path d="M1559.93 405.02L1307.6 493.46" stroke="hsl(116.80000000000001, 72.5%, 52%)" stroke-width="1.5"></path><path d="M1611.65 659.9L1611.65 659.9" stroke="hsl(116.80000000000001, 72.5%, 52%)" stroke-width="1.5"></path><circle r="25" cx="357.53" cy="526" fill="url(&quot;#SvgjsRadialGradient1013&quot;)"></circle><circle r="25" cx="670.01" cy="527.46" fill="url(&quot;#SvgjsRadialGradient1013&quot;)"></circle><circle r="25" cx="937.88" cy="529.55" fill="url(&quot;#SvgjsRadialGradient1013&quot;)"></circle><circle r="25" cx="1397.98" cy="53.24" fill="url(&quot;#SvgjsRadialGradient1013&quot;)"></circle><circle r="5" cx="-53.46" cy="537.89" fill="#92d88e"></circle><circle r="5" cx="-78.91" cy="693.21" fill="#92d88e"></circle><circle r="5" cx="58.28" cy="641.8" fill="#92d88e"></circle><circle r="5" cx="237.28" cy="532.53" fill="#92d88e"></circle><circle r="5" cx="198.99" cy="644.43" fill="#92d88e"></circle><circle r="5" cx="516.67" cy="521.38" fill="#92d88e"></circle><circle r="5" cx="537.27" cy="681.53" fill="#92d88e"></circle><circle r="5" cx="704.63" cy="396.21" fill="#92d88e"></circle><circle r="5" cx="676.45" cy="692.49" fill="#92d88e"></circle><circle r="5" cx="840.63" cy="410.67" fill="#92d88e"></circle><circle r="5" cx="829.66" cy="526.49" fill="#92d88e"></circle><circle r="5" cx="838.85" cy="701.28" fill="#92d88e"></circle><circle r="5" cx="938.85" cy="372.64" fill="#92d88e"></circle><circle r="5" cx="942.44" cy="685.43" fill="#92d88e"></circle><circle r="5" cx="1136.26" cy="105.75" fill="#92d88e"></circle><circle r="5" cx="1109.93" cy="240.02" fill="#92d88e"></circle><circle r="5" cx="1112.01" cy="348.37" fill="#92d88e"></circle><circle r="5" cx="1118.35" cy="527.06" fill="#92d88e"></circle><circle r="5" cx="1138.54" cy="688.86" fill="#92d88e"></circle><circle r="5" cx="1262.71" cy="-82.67" fill="#92d88e"></circle><circle r="5" cx="1298.94" cy="103.88" fill="#92d88e"></circle><circle r="5" cx="1309.85" cy="204.05" fill="#92d88e"></circle><circle r="5" cx="1248.74" cy="395.29" fill="#92d88e"></circle><circle r="5" cx="1307.6" cy="493.46" fill="#92d88e"></circle><circle r="5" cx="1288.89" cy="711.22" fill="#92d88e"></circle><circle r="5" cx="1425.73" cy="-42.15" fill="#92d88e"></circle><circle r="5" cx="1432.97" cy="194.53" fill="#92d88e"></circle><circle r="5" cx="1450.02" cy="407.64" fill="#92d88e"></circle><circle r="5" cx="1401.97" cy="505.26" fill="#92d88e"></circle><circle r="5" cx="1449.43" cy="663.21" fill="#92d88e"></circle><circle r="5" cx="1562.95" cy="-108.77" fill="#92d88e"></circle><circle r="5" cx="1606.92" cy="241.86" fill="#92d88e"></circle><circle r="5" cx="1559.93" cy="405.02" fill="#92d88e"></circle><circle r="5" cx="1611.65" cy="659.9" fill="#92d88e"></circle></g><defs><mask id="SvgjsMask1012"><rect width="1440" height="560" fill="#ffffff"></rect></mask><radialGradient id="SvgjsRadialGradient1013"><stop stop-color="#ffffff" offset="0.1"></stop><stop stop-color="rgba(36, 176, 28, 1)" offset="0.2"></stop><stop stop-color="rgba(36, 176, 28, 0)" offset="1"></stop></radialGradient></defs></svg>