<svg xmlns="http://www.w3.org/2000/svg" version="1.1" xmlns:xlink="http://www.w3.org/1999/xlink" xmlns:svgjs="http://svgjs.dev/svgjs" width="1440" height="560" preserveAspectRatio="none" viewBox="0 0 1440 560"><g mask="url(&quot;#SvgjsMask1265&quot;)" fill="none"><rect width="1440" height="560" x="0" y="0" fill="#0e2a47"></rect><g transform="translate(0, 44.8)" stroke-linecap="round" stroke="url(&quot;#SvgjsLinearGradient1266&quot;)"><path d="M261 212.365 L261 232.615" stroke-width="20.25"></path><path d="M261 262.99 L261 283.24" stroke-width="20.25"></path><path d="M261 313.615 L261 347.635" stroke-width="20.25"></path><path d="M288 161.255 L288 201.755" stroke-width="20.25"></path><path d="M288 232.13 L288 398.745" stroke-width="20.25"></path><path d="M315 224.955 L315 245.205" stroke-width="20.25"></path><path d="M315 275.58000000000004 L315 335.045" stroke-width="20.25"></path><path d="M342 206.845 L342 227.095" stroke-width="20.25"></path><path d="M342 257.47 L342 353.155" stroke-width="20.25"></path><path d="M369 124.795 L369 165.29500000000002" stroke-width="20.25"></path><path d="M369 195.67000000000002 L369 435.205" stroke-width="20.25"></path><path d="M396 223.595 L396 243.845" stroke-width="20.25"></path><path d="M396 274.22 L396 336.405" stroke-width="20.25"></path><path d="M423 232.845 L423 253.095" stroke-width="20.25"></path><path d="M423 283.47 L423 327.155" stroke-width="20.25"></path><path d="M450 222.135 L450 242.385" stroke-width="20.25"></path><path d="M450 272.76 L450 337.865" stroke-width="20.25"></path><path d="M477 225.075 L477 265.575" stroke-width="20.25"></path><path d="M477 295.95 L477 334.925" stroke-width="20.25"></path><path d="M504 168.535 L504 290.03499999999997" stroke-width="20.25"></path><path d="M504 320.40999999999997 L504 340.65999999999997" stroke-width="20.25"></path><path d="M504 371.03499999999997 L504 391.465" stroke-width="20.25"></path><path d="M531 214.805 L531 235.055" stroke-width="20.25"></path><path d="M531 265.43 L531 285.68" stroke-width="20.25"></path><path d="M531 316.055 L531 345.195" stroke-width="20.25"></path><path d="M558 245.485 L558 314.515" stroke-width="20.25"></path><path d="M585 118.215 L585 441.785" stroke-width="20.25"></path><path d="M612 150.885 L612 272.385" stroke-width="20.25"></path><path d="M612 302.76 L612 409.115" stroke-width="20.25"></path><path d="M639 260.435 L639 299.565" stroke-width="20.25"></path><path d="M666 190.665 L666 231.165" stroke-width="20.25"></path><path d="M666 261.53999999999996 L666 369.335" stroke-width="20.25"></path><path d="M693 198.305 L693 361.695" stroke-width="20.25"></path><path d="M720 117.265 L720 442.735" stroke-width="20.25"></path><path d="M747 215.735 L747 256.235" stroke-width="20.25"></path><path d="M747 286.61 L747 344.265" stroke-width="20.25"></path><path d="M774 196.125 L774 256.875" stroke-width="20.25"></path><path d="M774 287.25 L774 307.5" stroke-width="20.25"></path><path d="M774 337.875 L774 363.875" stroke-width="20.25"></path><path d="M801 267.755 L801 292.255" stroke-width="20.25"></path><path d="M828 238.375 L828 258.625" stroke-width="20.25"></path><path d="M828 289 L828 321.625" stroke-width="20.25"></path><path d="M855 260.375 L855 299.625" stroke-width="20.25"></path><path d="M882 163.505 L882 204.005" stroke-width="20.25"></path><path d="M882 234.38 L882 335.63" stroke-width="20.25"></path><path d="M882 366.005 L882 396.495" stroke-width="20.25"></path><path d="M909 202.965 L909 357.025" stroke-width="20.25"></path><path d="M936 137.595 L936 319.845" stroke-width="20.25"></path><path d="M936 350.22 L936 370.47" stroke-width="20.25"></path><path d="M936 400.845 L936 422.405" stroke-width="20.25"></path><path d="M963 109.405 L963 230.905" stroke-width="20.25"></path><path d="M963 261.28 L963 322.03" stroke-width="20.25"></path><path d="M963 352.405 L963 450.605" stroke-width="20.25"></path><path d="M990 141.245 L990 201.995" stroke-width="20.25"></path><path d="M990 232.37 L990 418.755" stroke-width="20.25"></path><path d="M1017 229.075 L1017 249.325" stroke-width="20.25"></path><path d="M1017 279.7 L1017 330.925" stroke-width="20.25"></path><path d="M1044 199.835 L1044 280.83500000000004" stroke-width="20.25"></path><path d="M1044 311.21000000000004 L1044 360.165" stroke-width="20.25"></path><path d="M1071 170.095 L1071 251.095" stroke-width="20.25"></path><path d="M1071 281.47 L1071 389.895" stroke-width="20.25"></path><path d="M1098 188.705 L1098 371.295" stroke-width="20.25"></path><path d="M1125 259.115 L1125 300.885" stroke-width="20.25"></path><path d="M1152 238.145 L1152 321.855" stroke-width="20.25"></path><path d="M1179 164.975 L1179 225.725" stroke-width="20.25"></path><path d="M1179 256.1 L1179 296.6" stroke-width="20.25"></path><path d="M1179 326.975 L1179 395.025" stroke-width="20.25"></path></g></g><defs><mask id="SvgjsMask1265"><rect width="1440" height="560" fill="#ffffff"></rect></mask><linearGradient x1="244.8" y1="280" x2="1195.2" y2="280" gradientUnits="userSpaceOnUse" id="SvgjsLinearGradient1266"><stop stop-color="#3a7cc3" offset="0"></stop><stop stop-color="#dd1133" offset="1"></stop></linearGradient></defs></svg>