<svg xmlns="http://www.w3.org/2000/svg" version="1.1" xmlns:xlink="http://www.w3.org/1999/xlink" xmlns:svgjs="http://svgjs.dev/svgjs" width="1440" height="560" preserveAspectRatio="none" viewBox="0 0 1440 560"><g mask="url(&quot;#SvgjsMask1000&quot;)" fill="none"><rect width="1440" height="560" x="0" y="0" fill="#0e2a47"></rect><rect width="221.20000000000002" height="221.20000000000002" clip-path="url(&quot;#SvgjsClipPath1001&quot;)" x="1263.04" y="148.3" fill="url(&quot;#SvgjsPattern1002&quot;)" transform="rotate(138.89, 1373.64, 258.9)"></rect><rect width="108" height="108" clip-path="url(&quot;#SvgjsClipPath1003&quot;)" x="239.94" y="89.29" fill="url(&quot;#SvgjsPattern1004&quot;)" transform="rotate(120.54, 293.94, 143.29)"></rect><path d="M785.39 514.17a5.6 5.6 0 1 0 4.85-10.1 5.6 5.6 0 1 0-4.85 10.1zM792.31 499.75a5.6 5.6 0 1 0 4.85-10.1 5.6 5.6 0 1 0-4.85 10.1zM799.23 485.32a5.6 5.6 0 1 0 4.85-10.1 5.6 5.6 0 1 0-4.85 10.1zM806.15 470.89a5.6 5.6 0 1 0 4.85-10.09 5.6 5.6 0 1 0-4.85 10.09zM785.98 549.94a5.6 5.6 0 1 0 4.84-10.09 5.6 5.6 0 1 0-4.84 10.09zM792.9 535.52a5.6 5.6 0 1 0 4.84-10.1 5.6 5.6 0 1 0-4.84 10.1zM799.82 521.09a5.6 5.6 0 1 0 4.84-10.1 5.6 5.6 0 1 0-4.84 10.1zM806.74 506.67a5.6 5.6 0 1 0 4.84-10.1 5.6 5.6 0 1 0-4.84 10.1zM786.56 585.72a5.6 5.6 0 1 0 4.84-10.1 5.6 5.6 0 1 0-4.84 10.1zM793.48 571.29a5.6 5.6 0 1 0 4.85-10.1 5.6 5.6 0 1 0-4.85 10.1zM800.4 556.87a5.6 5.6 0 1 0 4.85-10.1 5.6 5.6 0 1 0-4.85 10.1zM807.32 542.44a5.6 5.6 0 1 0 4.85-10.1 5.6 5.6 0 1 0-4.85 10.1z" fill="#d3b714"></path><rect width="363" height="363" clip-path="url(&quot;#SvgjsClipPath1005&quot;)" x="82.01" y="-157.61" fill="url(&quot;#SvgjsPattern1006&quot;)" transform="rotate(287.26, 263.51, 23.89)"></rect><path d="M687.01 365.13L694.77 375.32 686.54 385.13 694.3 395.31 686.07 405.12 693.83 415.31 685.6 425.11M679.01 364.94L686.78 375.13 678.54 384.94 686.3 395.12 678.07 404.93 685.83 415.12 677.6 424.93" stroke="#037b0b" stroke-width="1.05" stroke-dasharray="3, 3"></path><rect width="108" height="108" clip-path="url(&quot;#SvgjsClipPath1007&quot;)" x="623.09" y="427.29" fill="url(&quot;#SvgjsPattern1008&quot;)" transform="rotate(198.2, 677.09, 481.29)"></rect><rect width="60" height="60" clip-path="url(&quot;#SvgjsClipPath1009&quot;)" x="224.1" y="135.81" fill="url(&quot;#SvgjsPattern1010&quot;)" transform="rotate(90.19, 254.1, 165.81)"></rect><path d="M942.45 346.78999999999996 L982.8 230.01L886.3806138783881 212.155613878388z" stroke="#d3b714" stroke-width="1.9" stroke-dasharray="2, 2"></path><rect width="138" height="138" clip-path="url(&quot;#SvgjsClipPath1011&quot;)" x="215.34" y="380" fill="url(&quot;#SvgjsPattern1012&quot;)" transform="rotate(255.61, 284.34, 449)"></rect><path d="M603.48 311.28a5.6 5.6 0 1 0-10.83-2.84 5.6 5.6 0 1 0 10.83 2.84zM588 307.22a5.6 5.6 0 1 0-10.83-2.84 5.6 5.6 0 1 0 10.83 2.84zM572.53 303.17a5.6 5.6 0 1 0-10.84-2.84 5.6 5.6 0 1 0 10.84 2.84zM557.05 299.11a5.6 5.6 0 1 0-10.84-2.84 5.6 5.6 0 1 0 10.84 2.84zM638.49 303.92a5.6 5.6 0 1 0-10.83-2.84 5.6 5.6 0 1 0 10.83 2.84zM623.01 299.86a5.6 5.6 0 1 0-10.83-2.84 5.6 5.6 0 1 0 10.83 2.84zM607.54 295.8a5.6 5.6 0 1 0-10.84-2.84 5.6 5.6 0 1 0 10.84 2.84zM592.06 291.75a5.6 5.6 0 1 0-10.83-2.84 5.6 5.6 0 1 0 10.83 2.84z" fill="#d3b714"></path><rect width="276" height="276" clip-path="url(&quot;#SvgjsClipPath1013&quot;)" x="592.23" y="322.31" fill="url(&quot;#SvgjsPattern1014&quot;)" transform="rotate(312.03, 730.23, 460.31)"></rect><rect width="312" height="312" clip-path="url(&quot;#SvgjsClipPath1015&quot;)" x="859.88" y="251.36" fill="url(&quot;#SvgjsPattern1016&quot;)" transform="rotate(235.54, 1015.88, 407.36)"></rect></g><defs><mask id="SvgjsMask1000"><rect width="1440" height="560" fill="#ffffff"></rect></mask><pattern x="0" y="0" width="11.06" height="11.06" patternUnits="userSpaceOnUse" id="SvgjsPattern1002"><path d="M0 11.06L5.53 0L11.06 11.06" stroke="#037b0b" fill="none"></path></pattern><clipPath id="SvgjsClipPath1001"><circle r="55.300000000000004" cx="1373.64" cy="258.9"></circle></clipPath><pattern x="0" y="0" width="6" height="6" patternUnits="userSpaceOnUse" id="SvgjsPattern1004"><path d="M3 1L3 5M1 3L5 3" stroke="#037b0b" fill="none" stroke-width="1"></path></pattern><clipPath id="SvgjsClipPath1003"><circle r="27" cx="293.94" cy="143.29"></circle></clipPath><pattern x="0" y="0" width="363" height="7.26" patternUnits="userSpaceOnUse" id="SvgjsPattern1006"><rect width="363" height="3.63" x="0" y="0" fill="#e73635"></rect><rect width="363" height="3.63" x="0" y="3.63" fill="rgba(0, 0, 0, 0)"></rect></pattern><clipPath id="SvgjsClipPath1005"><circle r="90.75" cx="263.51" cy="23.89"></circle></clipPath><pattern x="0" y="0" width="6" height="6" patternUnits="userSpaceOnUse" id="SvgjsPattern1008"><path d="M3 1L3 5M1 3L5 3" stroke="#037b0b" fill="none" stroke-width="1.7"></path></pattern><clipPath id="SvgjsClipPath1007"><circle r="27" cx="677.09" cy="481.29"></circle></clipPath><pattern x="0" y="0" width="6" height="6" patternUnits="userSpaceOnUse" id="SvgjsPattern1010"><path d="M0 6L3 0L6 6" stroke="#d3b714" fill="none"></path></pattern><clipPath id="SvgjsClipPath1009"><circle r="15" cx="254.1" cy="165.81"></circle></clipPath><pattern x="0" y="0" width="13.8" height="13.8" patternUnits="userSpaceOnUse" id="SvgjsPattern1012"><path d="M6.9 1L6.9 12.8M1 6.9L12.8 6.9" stroke="#e73635" fill="none" stroke-width="1.44"></path></pattern><clipPath id="SvgjsClipPath1011"><circle r="34.5" cx="284.34" cy="449"></circle></clipPath><pattern x="0" y="0" width="6" height="6" patternUnits="userSpaceOnUse" id="SvgjsPattern1014"><path d="M3 1L3 5M1 3L5 3" stroke="#037b0b" fill="none" stroke-width="1.29"></path></pattern><clipPath id="SvgjsClipPath1013"><circle r="69" cx="730.23" cy="460.31"></circle></clipPath><pattern x="0" y="0" width="6" height="6" patternUnits="userSpaceOnUse" id="SvgjsPattern1016"><path d="M3 1L3 5M1 3L5 3" stroke="#d3b714" fill="none" stroke-width="1"></path></pattern><clipPath id="SvgjsClipPath1015"><circle r="78" cx="1015.88" cy="407.36"></circle></clipPath></defs></svg>